<mxfile host="app.diagrams.net" modified="2023-05-29T22:48:42.753Z" agent="Mozilla/5.0 (Windows NT 10.0; Win64; x64) AppleWebKit/537.36 (KHTML, like Gecko) Chrome/113.0.0.0 Safari/537.36" etag="nhr5sbvFh6l6WH6QY525" version="21.3.5" type="device">
  <diagram name="Page-1" id="YgmhJMIQG2gqitAd2pZI">
    <mxGraphModel dx="1235" dy="684" grid="1" gridSize="10" guides="1" tooltips="1" connect="1" arrows="1" fold="1" page="1" pageScale="1" pageWidth="850" pageHeight="1100" math="0" shadow="0">
      <root>
        <mxCell id="0" />
        <mxCell id="1" parent="0" />
        <mxCell id="MiNu9TwSPRhiVauPR68H-59" style="edgeStyle=orthogonalEdgeStyle;rounded=0;orthogonalLoop=1;jettySize=auto;html=1;exitX=0.5;exitY=0;exitDx=0;exitDy=0;entryX=0.008;entryY=0.113;entryDx=0;entryDy=0;entryPerimeter=0;" edge="1" parent="1" source="MiNu9TwSPRhiVauPR68H-1" target="MiNu9TwSPRhiVauPR68H-20">
          <mxGeometry relative="1" as="geometry" />
        </mxCell>
        <mxCell id="MiNu9TwSPRhiVauPR68H-61" style="edgeStyle=orthogonalEdgeStyle;rounded=0;orthogonalLoop=1;jettySize=auto;html=1;exitX=0.5;exitY=1;exitDx=0;exitDy=0;" edge="1" parent="1" source="MiNu9TwSPRhiVauPR68H-1">
          <mxGeometry relative="1" as="geometry">
            <mxPoint x="610" y="420" as="targetPoint" />
            <Array as="points">
              <mxPoint x="115" y="310" />
              <mxPoint x="581" y="310" />
            </Array>
          </mxGeometry>
        </mxCell>
        <mxCell id="MiNu9TwSPRhiVauPR68H-1" value="bll" style="swimlane;whiteSpace=wrap;html=1;" vertex="1" parent="1">
          <mxGeometry x="20" y="30" width="190" height="160" as="geometry" />
        </mxCell>
        <mxCell id="MiNu9TwSPRhiVauPR68H-2" value="ClientBLL" style="rounded=0;whiteSpace=wrap;html=1;" vertex="1" parent="MiNu9TwSPRhiVauPR68H-1">
          <mxGeometry x="10" y="40" width="70" height="40" as="geometry" />
        </mxCell>
        <mxCell id="MiNu9TwSPRhiVauPR68H-3" value="OrderBLL" style="rounded=0;whiteSpace=wrap;html=1;" vertex="1" parent="MiNu9TwSPRhiVauPR68H-1">
          <mxGeometry x="100" y="40" width="80" height="40" as="geometry" />
        </mxCell>
        <mxCell id="MiNu9TwSPRhiVauPR68H-4" value="ProductBLL" style="rounded=0;whiteSpace=wrap;html=1;" vertex="1" parent="MiNu9TwSPRhiVauPR68H-1">
          <mxGeometry x="50" y="100" width="83" height="40" as="geometry" />
        </mxCell>
        <mxCell id="MiNu9TwSPRhiVauPR68H-5" value="validators" style="swimlane;whiteSpace=wrap;html=1;" vertex="1" parent="1">
          <mxGeometry x="260" y="60" width="290" height="210" as="geometry" />
        </mxCell>
        <mxCell id="MiNu9TwSPRhiVauPR68H-6" value="&lt;div style=&quot;background-color: rgb(43, 43, 43); font-size: 9.8pt;&quot;&gt;&lt;font color=&quot;#ffffff&quot;&gt;ClientAgeValidator&lt;/font&gt;&lt;/div&gt;" style="rounded=0;whiteSpace=wrap;html=1;" vertex="1" parent="MiNu9TwSPRhiVauPR68H-5">
          <mxGeometry y="30" width="135" height="40" as="geometry" />
        </mxCell>
        <mxCell id="MiNu9TwSPRhiVauPR68H-8" value="&lt;div style=&quot;background-color: rgb(43, 43, 43); font-size: 9.8pt;&quot;&gt;&lt;font color=&quot;#ffffff&quot;&gt;ClientNameValidator&lt;/font&gt;&lt;/div&gt;" style="rounded=0;whiteSpace=wrap;html=1;" vertex="1" parent="MiNu9TwSPRhiVauPR68H-5">
          <mxGeometry y="70" width="140" height="40" as="geometry" />
        </mxCell>
        <mxCell id="MiNu9TwSPRhiVauPR68H-9" value="&lt;div style=&quot;background-color: rgb(43, 43, 43); font-size: 9.8pt;&quot;&gt;&lt;font color=&quot;#ffffff&quot;&gt; EmailValidator&lt;/font&gt;&lt;/div&gt;" style="rounded=0;whiteSpace=wrap;html=1;" vertex="1" parent="MiNu9TwSPRhiVauPR68H-5">
          <mxGeometry x="170" y="30" width="105" height="40" as="geometry" />
        </mxCell>
        <mxCell id="MiNu9TwSPRhiVauPR68H-10" value="&lt;div style=&quot;background-color: rgb(43, 43, 43); font-size: 9.8pt;&quot;&gt;&lt;font color=&quot;#ffffff&quot;&gt;IDValidator&lt;/font&gt;&lt;/div&gt;" style="rounded=0;whiteSpace=wrap;html=1;" vertex="1" parent="MiNu9TwSPRhiVauPR68H-5">
          <mxGeometry x="175" y="70" width="90" height="40" as="geometry" />
        </mxCell>
        <mxCell id="MiNu9TwSPRhiVauPR68H-12" value="&lt;div style=&quot;background-color: rgb(43, 43, 43); font-size: 9.8pt;&quot;&gt;&lt;font color=&quot;#ffffff&quot;&gt;PriceValidator&lt;/font&gt;&lt;/div&gt;" style="rounded=0;whiteSpace=wrap;html=1;" vertex="1" parent="MiNu9TwSPRhiVauPR68H-5">
          <mxGeometry x="175" y="115" width="100" height="40" as="geometry" />
        </mxCell>
        <mxCell id="MiNu9TwSPRhiVauPR68H-11" value="&lt;div style=&quot;background-color: rgb(43, 43, 43); font-size: 9.8pt;&quot;&gt;&lt;font color=&quot;#ffffff&quot;&gt;ProductNameValidator&lt;/font&gt;&lt;/div&gt;" style="rounded=0;whiteSpace=wrap;html=1;" vertex="1" parent="MiNu9TwSPRhiVauPR68H-5">
          <mxGeometry y="120" width="150" height="30" as="geometry" />
        </mxCell>
        <mxCell id="MiNu9TwSPRhiVauPR68H-14" value="&lt;div style=&quot;background-color: rgb(43, 43, 43); font-size: 9.8pt;&quot;&gt;&lt;font color=&quot;#ffffff&quot;&gt;QuantityOrderValidator&lt;/font&gt;&lt;/div&gt;" style="rounded=0;whiteSpace=wrap;html=1;" vertex="1" parent="MiNu9TwSPRhiVauPR68H-5">
          <mxGeometry y="160" width="160" height="40" as="geometry" />
        </mxCell>
        <mxCell id="MiNu9TwSPRhiVauPR68H-13" value="&lt;div style=&quot;background-color: rgb(43, 43, 43); font-size: 9.8pt;&quot;&gt;&lt;font color=&quot;#ffffff&quot;&gt;QuantityValidator&lt;/font&gt;&lt;/div&gt;" style="rounded=0;whiteSpace=wrap;html=1;" vertex="1" parent="MiNu9TwSPRhiVauPR68H-5">
          <mxGeometry x="170" y="160" width="110" height="40" as="geometry" />
        </mxCell>
        <mxCell id="MiNu9TwSPRhiVauPR68H-15" style="edgeStyle=orthogonalEdgeStyle;rounded=0;orthogonalLoop=1;jettySize=auto;html=1;exitX=0.5;exitY=1;exitDx=0;exitDy=0;" edge="1" parent="MiNu9TwSPRhiVauPR68H-5" source="MiNu9TwSPRhiVauPR68H-13" target="MiNu9TwSPRhiVauPR68H-13">
          <mxGeometry relative="1" as="geometry" />
        </mxCell>
        <mxCell id="MiNu9TwSPRhiVauPR68H-18" value="connection" style="swimlane;whiteSpace=wrap;html=1;" vertex="1" parent="1">
          <mxGeometry x="20" y="350" width="200" height="120" as="geometry" />
        </mxCell>
        <mxCell id="MiNu9TwSPRhiVauPR68H-19" value="&lt;div style=&quot;background-color: rgb(43, 43, 43); font-size: 9.8pt;&quot;&gt;&lt;font color=&quot;#ffffff&quot;&gt;ConnectionFactory&lt;/font&gt;&lt;/div&gt;" style="rounded=0;whiteSpace=wrap;html=1;" vertex="1" parent="MiNu9TwSPRhiVauPR68H-18">
          <mxGeometry x="21.5" y="50" width="158.5" height="50" as="geometry" />
        </mxCell>
        <mxCell id="MiNu9TwSPRhiVauPR68H-58" style="edgeStyle=orthogonalEdgeStyle;rounded=0;orthogonalLoop=1;jettySize=auto;html=1;exitX=0.25;exitY=1;exitDx=0;exitDy=0;entryX=0.43;entryY=-0.028;entryDx=0;entryDy=0;entryPerimeter=0;" edge="1" parent="1" source="MiNu9TwSPRhiVauPR68H-20" target="MiNu9TwSPRhiVauPR68H-18">
          <mxGeometry relative="1" as="geometry" />
        </mxCell>
        <mxCell id="MiNu9TwSPRhiVauPR68H-20" value="dao" style="swimlane;whiteSpace=wrap;html=1;" vertex="1" parent="1">
          <mxGeometry x="580" y="20" width="260" height="200" as="geometry" />
        </mxCell>
        <mxCell id="MiNu9TwSPRhiVauPR68H-30" value="&lt;div style=&quot;background-color: rgb(43, 43, 43); font-size: 9.8pt;&quot;&gt;&lt;font color=&quot;#ffffff&quot;&gt;AbstractDAO&lt;/font&gt;&lt;/div&gt;" style="rounded=0;whiteSpace=wrap;html=1;" vertex="1" parent="MiNu9TwSPRhiVauPR68H-20">
          <mxGeometry x="10" y="30" width="100" height="40" as="geometry" />
        </mxCell>
        <mxCell id="MiNu9TwSPRhiVauPR68H-29" value="&lt;div style=&quot;background-color: rgb(43, 43, 43); font-size: 9.8pt;&quot;&gt;&lt;font color=&quot;#ffffff&quot;&gt;ClientDAO&lt;/font&gt;&lt;/div&gt;" style="rounded=0;whiteSpace=wrap;html=1;" vertex="1" parent="MiNu9TwSPRhiVauPR68H-20">
          <mxGeometry x="130" y="30" width="100" height="40" as="geometry" />
        </mxCell>
        <mxCell id="MiNu9TwSPRhiVauPR68H-28" value="&lt;div style=&quot;background-color: rgb(43, 43, 43); font-size: 9.8pt;&quot;&gt;&lt;font color=&quot;#ffffff&quot;&gt;OrderDAO&lt;/font&gt;&lt;/div&gt;" style="rounded=0;whiteSpace=wrap;html=1;" vertex="1" parent="MiNu9TwSPRhiVauPR68H-20">
          <mxGeometry x="10" y="82.5" width="100" height="35" as="geometry" />
        </mxCell>
        <mxCell id="MiNu9TwSPRhiVauPR68H-27" value="&lt;div style=&quot;background-color: rgb(43, 43, 43); font-size: 9.8pt;&quot;&gt;&lt;font style=&quot;&quot; color=&quot;#ffffff&quot;&gt;ProductDAO&lt;/font&gt;&lt;/div&gt;" style="rounded=0;whiteSpace=wrap;html=1;" vertex="1" parent="MiNu9TwSPRhiVauPR68H-20">
          <mxGeometry x="140" y="80" width="100" height="40" as="geometry" />
        </mxCell>
        <mxCell id="MiNu9TwSPRhiVauPR68H-26" value="&lt;div style=&quot;background-color: rgb(43, 43, 43); font-size: 9.8pt;&quot;&gt;&lt;font color=&quot;#ffffff&quot;&gt;StudentDAO&lt;/font&gt;&lt;/div&gt;" style="rounded=0;whiteSpace=wrap;html=1;" vertex="1" parent="MiNu9TwSPRhiVauPR68H-20">
          <mxGeometry x="65" y="140" width="120" height="37.5" as="geometry" />
        </mxCell>
        <mxCell id="MiNu9TwSPRhiVauPR68H-31" value="model" style="swimlane;whiteSpace=wrap;html=1;" vertex="1" parent="1">
          <mxGeometry x="610" y="290" width="200" height="160" as="geometry" />
        </mxCell>
        <mxCell id="MiNu9TwSPRhiVauPR68H-25" value="Client" style="rounded=0;whiteSpace=wrap;html=1;" vertex="1" parent="MiNu9TwSPRhiVauPR68H-31">
          <mxGeometry x="10" y="40" width="70" height="40" as="geometry" />
        </mxCell>
        <mxCell id="MiNu9TwSPRhiVauPR68H-24" value="Orders" style="rounded=0;whiteSpace=wrap;html=1;" vertex="1" parent="MiNu9TwSPRhiVauPR68H-31">
          <mxGeometry x="100" y="40" width="80" height="40" as="geometry" />
        </mxCell>
        <mxCell id="MiNu9TwSPRhiVauPR68H-23" value="Product" style="rounded=0;whiteSpace=wrap;html=1;" vertex="1" parent="MiNu9TwSPRhiVauPR68H-31">
          <mxGeometry x="5" y="100" width="80" height="40" as="geometry" />
        </mxCell>
        <mxCell id="MiNu9TwSPRhiVauPR68H-22" value="Student" style="rounded=0;whiteSpace=wrap;html=1;" vertex="1" parent="MiNu9TwSPRhiVauPR68H-31">
          <mxGeometry x="100" y="95" width="80" height="45" as="geometry" />
        </mxCell>
        <mxCell id="MiNu9TwSPRhiVauPR68H-33" value="start" style="swimlane;whiteSpace=wrap;html=1;" vertex="1" parent="1">
          <mxGeometry x="610" y="530" width="200" height="110" as="geometry" />
        </mxCell>
        <mxCell id="MiNu9TwSPRhiVauPR68H-34" value="ReflectionExample" style="rounded=0;whiteSpace=wrap;html=1;" vertex="1" parent="MiNu9TwSPRhiVauPR68H-33">
          <mxGeometry x="10" y="47.5" width="110" height="42.5" as="geometry" />
        </mxCell>
        <mxCell id="MiNu9TwSPRhiVauPR68H-63" style="edgeStyle=orthogonalEdgeStyle;rounded=0;orthogonalLoop=1;jettySize=auto;html=1;" edge="1" parent="MiNu9TwSPRhiVauPR68H-33" source="MiNu9TwSPRhiVauPR68H-35">
          <mxGeometry relative="1" as="geometry">
            <mxPoint x="220" y="-310" as="targetPoint" />
          </mxGeometry>
        </mxCell>
        <mxCell id="MiNu9TwSPRhiVauPR68H-35" value="Start" style="rounded=0;whiteSpace=wrap;html=1;" vertex="1" parent="MiNu9TwSPRhiVauPR68H-33">
          <mxGeometry x="130" y="43.75" width="60" height="46.25" as="geometry" />
        </mxCell>
        <mxCell id="MiNu9TwSPRhiVauPR68H-56" style="edgeStyle=orthogonalEdgeStyle;rounded=0;orthogonalLoop=1;jettySize=auto;html=1;entryX=0.5;entryY=1;entryDx=0;entryDy=0;" edge="1" parent="1" source="MiNu9TwSPRhiVauPR68H-36" target="MiNu9TwSPRhiVauPR68H-31">
          <mxGeometry relative="1" as="geometry">
            <Array as="points">
              <mxPoint x="710" y="510" />
            </Array>
          </mxGeometry>
        </mxCell>
        <mxCell id="MiNu9TwSPRhiVauPR68H-62" style="edgeStyle=orthogonalEdgeStyle;rounded=0;orthogonalLoop=1;jettySize=auto;html=1;exitX=0.5;exitY=0;exitDx=0;exitDy=0;entryX=0.75;entryY=1;entryDx=0;entryDy=0;" edge="1" parent="1" source="MiNu9TwSPRhiVauPR68H-36" target="MiNu9TwSPRhiVauPR68H-1">
          <mxGeometry relative="1" as="geometry">
            <mxPoint x="160" y="200" as="targetPoint" />
          </mxGeometry>
        </mxCell>
        <mxCell id="MiNu9TwSPRhiVauPR68H-36" value="presentation" style="swimlane;whiteSpace=wrap;html=1;" vertex="1" parent="1">
          <mxGeometry x="270" y="395" width="240" height="310" as="geometry" />
        </mxCell>
        <mxCell id="MiNu9TwSPRhiVauPR68H-50" value="&lt;div style=&quot;background-color: rgb(43, 43, 43); font-size: 9.8pt;&quot;&gt;&lt;font color=&quot;#ffffff&quot;&gt;AddClientView&lt;/font&gt;&lt;/div&gt;" style="rounded=0;whiteSpace=wrap;html=1;" vertex="1" parent="MiNu9TwSPRhiVauPR68H-36">
          <mxGeometry x="10" y="30" width="90" height="30" as="geometry" />
        </mxCell>
        <mxCell id="MiNu9TwSPRhiVauPR68H-49" value="&lt;div style=&quot;background-color: rgb(43, 43, 43); font-size: 9.8pt;&quot;&gt;&lt;font color=&quot;#ffffff&quot;&gt;AddOrderView&lt;/font&gt;&lt;/div&gt;" style="rounded=0;whiteSpace=wrap;html=1;" vertex="1" parent="MiNu9TwSPRhiVauPR68H-36">
          <mxGeometry x="110" y="25" width="90" height="35" as="geometry" />
        </mxCell>
        <mxCell id="MiNu9TwSPRhiVauPR68H-48" value="&lt;div style=&quot;background-color: rgb(43, 43, 43); font-size: 9.8pt;&quot;&gt;&lt;font color=&quot;#ffffff&quot;&gt;AddProductView&lt;/font&gt;&lt;/div&gt;" style="rounded=0;whiteSpace=wrap;html=1;" vertex="1" parent="MiNu9TwSPRhiVauPR68H-36">
          <mxGeometry y="70" width="110" height="30" as="geometry" />
        </mxCell>
        <mxCell id="MiNu9TwSPRhiVauPR68H-45" value="&lt;div style=&quot;background-color: rgb(43, 43, 43); font-size: 9.8pt;&quot;&gt;&lt;font color=&quot;#ffffff&quot;&gt;Controller&lt;/font&gt;&lt;/div&gt;" style="rounded=0;whiteSpace=wrap;html=1;" vertex="1" parent="MiNu9TwSPRhiVauPR68H-36">
          <mxGeometry x="120" y="70" width="70" height="30" as="geometry" />
        </mxCell>
        <mxCell id="MiNu9TwSPRhiVauPR68H-47" value="&lt;div style=&quot;background-color: rgb(43, 43, 43); font-size: 9.8pt;&quot;&gt;&lt;font color=&quot;#ffffff&quot;&gt;DeleteClientView&lt;/font&gt;&lt;/div&gt;" style="rounded=0;whiteSpace=wrap;html=1;" vertex="1" parent="MiNu9TwSPRhiVauPR68H-36">
          <mxGeometry x="5" y="110" width="105" height="30" as="geometry" />
        </mxCell>
        <mxCell id="MiNu9TwSPRhiVauPR68H-46" value="&lt;div style=&quot;background-color: rgb(43, 43, 43); font-size: 9.8pt;&quot;&gt;&lt;font color=&quot;#ffffff&quot;&gt;DeleteOrderView&lt;/font&gt;&lt;/div&gt;" style="rounded=0;whiteSpace=wrap;html=1;" vertex="1" parent="MiNu9TwSPRhiVauPR68H-36">
          <mxGeometry x="5" y="150" width="110" height="30" as="geometry" />
        </mxCell>
        <mxCell id="MiNu9TwSPRhiVauPR68H-44" value="&lt;div style=&quot;background-color: rgb(43, 43, 43); font-size: 9.8pt;&quot;&gt;&lt;font color=&quot;#ffffff&quot;&gt;DeleteProductView&lt;/font&gt;&lt;/div&gt;" style="rounded=0;whiteSpace=wrap;html=1;" vertex="1" parent="MiNu9TwSPRhiVauPR68H-36">
          <mxGeometry x="5" y="190" width="115" height="30" as="geometry" />
        </mxCell>
        <mxCell id="MiNu9TwSPRhiVauPR68H-43" value="&lt;div style=&quot;background-color: rgb(43, 43, 43); font-size: 9.8pt;&quot;&gt;&lt;font color=&quot;#ffffff&quot;&gt;EditClientView&lt;/font&gt;&lt;/div&gt;" style="rounded=0;whiteSpace=wrap;html=1;" vertex="1" parent="MiNu9TwSPRhiVauPR68H-36">
          <mxGeometry x="115" y="105" width="95" height="35" as="geometry" />
        </mxCell>
        <mxCell id="MiNu9TwSPRhiVauPR68H-42" value="&lt;div style=&quot;background-color: rgb(43, 43, 43); font-size: 9.8pt;&quot;&gt;&lt;font color=&quot;#ffffff&quot;&gt;EditOrderView&lt;/font&gt;&lt;/div&gt;" style="rounded=0;whiteSpace=wrap;html=1;" vertex="1" parent="MiNu9TwSPRhiVauPR68H-36">
          <mxGeometry x="120" y="150" width="100" height="30" as="geometry" />
        </mxCell>
        <mxCell id="MiNu9TwSPRhiVauPR68H-41" value="&lt;div style=&quot;background-color: rgb(43, 43, 43); font-size: 9.8pt;&quot;&gt;&lt;font color=&quot;#ffffff&quot;&gt;EditProductView&lt;/font&gt;&lt;/div&gt;" style="rounded=0;whiteSpace=wrap;html=1;" vertex="1" parent="MiNu9TwSPRhiVauPR68H-36">
          <mxGeometry x="130" y="190" width="100" height="30" as="geometry" />
        </mxCell>
        <mxCell id="MiNu9TwSPRhiVauPR68H-40" value="&lt;div style=&quot;background-color: rgb(43, 43, 43); font-size: 9.8pt;&quot;&gt;&lt;font color=&quot;#ffffff&quot;&gt;ShowClientsView&lt;/font&gt;&lt;/div&gt;" style="rounded=0;whiteSpace=wrap;html=1;" vertex="1" parent="MiNu9TwSPRhiVauPR68H-36">
          <mxGeometry x="2.5" y="230" width="120" height="30" as="geometry" />
        </mxCell>
        <mxCell id="MiNu9TwSPRhiVauPR68H-39" value="&lt;div style=&quot;background-color: rgb(43, 43, 43); font-size: 9.8pt;&quot;&gt;&lt;font color=&quot;#ffffff&quot;&gt;ShowOrdersView&lt;/font&gt;&lt;/div&gt;" style="rounded=0;whiteSpace=wrap;html=1;" vertex="1" parent="MiNu9TwSPRhiVauPR68H-36">
          <mxGeometry x="130" y="230" width="110" height="30" as="geometry" />
        </mxCell>
        <mxCell id="MiNu9TwSPRhiVauPR68H-38" value="&lt;div style=&quot;background-color: rgb(43, 43, 43); font-size: 9.8pt;&quot;&gt;&lt;font color=&quot;#ffffff&quot;&gt; ShowProductsView&lt;/font&gt;&lt;/div&gt;" style="rounded=0;whiteSpace=wrap;html=1;" vertex="1" parent="MiNu9TwSPRhiVauPR68H-36">
          <mxGeometry x="2.5" y="270" width="120" height="30" as="geometry" />
        </mxCell>
        <mxCell id="MiNu9TwSPRhiVauPR68H-37" value="&lt;div style=&quot;background-color: rgb(43, 43, 43); font-size: 9.8pt;&quot;&gt;&lt;font color=&quot;#ffffff&quot;&gt;View&lt;/font&gt;&lt;/div&gt;" style="rounded=0;whiteSpace=wrap;html=1;" vertex="1" parent="MiNu9TwSPRhiVauPR68H-36">
          <mxGeometry x="140" y="270" width="80" height="30" as="geometry" />
        </mxCell>
        <mxCell id="MiNu9TwSPRhiVauPR68H-57" style="edgeStyle=orthogonalEdgeStyle;rounded=0;orthogonalLoop=1;jettySize=auto;html=1;entryX=0.5;entryY=0;entryDx=0;entryDy=0;" edge="1" parent="1" target="MiNu9TwSPRhiVauPR68H-31">
          <mxGeometry relative="1" as="geometry">
            <mxPoint x="710" y="220" as="sourcePoint" />
          </mxGeometry>
        </mxCell>
      </root>
    </mxGraphModel>
  </diagram>
</mxfile>
